<?xml version="1.0" encoding="UTF-8"?>
<svg id="Layer_1" xmlns="http://www.w3.org/2000/svg" version="1.1" viewBox="0 0 2000 2000">
  <!-- Generator: Adobe Illustrator 30.8.1, SVG Export Plug-In . SVG Version: 2.1.4 Build 1)  -->
  <defs>
    <style>
      .st0 {
        fill: #ffde69;
      }
    </style>
  </defs>
  <path class="st0" d="M1228.56,965.61c-.22-1.98-.58-3.94-1.08-5.87s-1.15-3.82-1.92-5.65c-.78-1.84-1.69-3.61-2.73-5.32-1.03-1.7-2.19-3.32-3.47-4.86-1.27-1.53-2.65-2.97-4.13-4.3-1.49-1.33-3.06-2.55-4.73-3.65-1.66-1.11-3.4-2.08-5.2-2.93-1.81-.85-3.67-1.56-5.58-2.14-1.91-.57-3.85-1.01-5.82-1.3-1.98-.29-3.96-.44-5.96-.44h-145.63l137.11-286.74.21-.45c.67-1.53,1.21-3.12,1.61-4.75.39-1.63.65-3.29.76-4.96.11-1.68.08-3.35-.09-5.02-.18-1.66-.51-3.31-.96-4.92-.47-1.62-1.07-3.18-1.8-4.69-.73-1.51-1.59-2.94-2.58-4.31-.97-1.36-2.07-2.63-3.27-3.8-1.2-1.17-2.5-2.23-3.88-3.18-1.38-.94-2.84-1.77-4.38-2.46-1.52-.69-3.1-1.25-4.72-1.67-1.63-.43-3.28-.71-4.95-.84s-3.35-.13-5.02.03-3.32.45-4.94.89c-1.62.44-3.19,1.02-4.71,1.73s-2.96,1.55-4.34,2.52c-1.37.96-2.66,2.03-3.84,3.22l-.51.54-352.61,388.6c-.99,1.02-1.89,2.1-2.72,3.25-.83,1.15-1.57,2.36-2.23,3.62-.65,1.25-1.21,2.56-1.66,3.89-.47,1.34-.83,2.71-1.09,4.1-.26,1.4-.42,2.8-.48,4.22-.05,1.42,0,2.83.15,4.24.15,1.41.4,2.8.76,4.17.35,1.37.81,2.71,1.36,4.02s1.19,2.57,1.93,3.78,1.55,2.36,2.46,3.45c.9,1.1,1.88,2.11,2.93,3.06,1.06.95,2.18,1.82,3.36,2.6,1.18.79,2.41,1.48,3.69,2.09,1.29.6,2.6,1.11,3.96,1.52,1.36.41,2.74.72,4.14.93,1.4.21,2.82.31,4.23.32h165.51l-173.58,307.35-.14.25c-.84,1.5-1.54,3.06-2.09,4.69-.56,1.63-.97,3.3-1.22,5-.26,1.7-.36,3.41-.31,5.13.06,1.72.27,3.43.62,5.1.36,1.69.87,3.33,1.53,4.92.66,1.59,1.46,3.11,2.39,4.55.93,1.45,1.98,2.8,3.16,4.05,1.17,1.27,2.45,2.4,3.84,3.43,2.53,1.97,5.3,3.47,8.34,4.52,3.02,1.05,6.14,1.58,9.34,1.59,1.85-.01,3.69-.21,5.5-.58s3.57-.91,5.28-1.61c1.71-.71,3.33-1.58,4.88-2.59,1.54-1.03,2.97-2.19,4.29-3.48l.43-.43,379.35-391.58c1.39-1.44,2.66-2.97,3.82-4.59,1.17-1.62,2.21-3.32,3.12-5.09.92-1.78,1.7-3.6,2.34-5.5.65-1.88,1.16-3.8,1.52-5.77.37-1.96.58-3.94.66-5.93.08-2,0-3.98-.21-5.97ZM1198.19,972.1c-.2,1.05-.55,2.06-1.04,3.02-.49.95-1.12,1.82-1.87,2.59l-373.16,385.31,170.5-301.91.14-.24c.3-.55.57-1.11.83-1.68.26-.56.51-1.13.73-1.72.22-.58.43-1.17.61-1.76.19-.6.35-1.2.5-1.81.14-.6.27-1.21.38-1.83.11-.61.19-1.23.26-1.85.06-.61.11-1.24.14-1.86.03-.62.03-1.24.02-1.87-.01-.62-.05-1.25-.1-1.86-.05-.63-.12-1.25-.22-1.86-.09-.62-.21-1.23-.34-1.84s-.29-1.21-.46-1.81c-.17-.6-.36-1.19-.57-1.78-.21-.59-.44-1.16-.69-1.74-.25-.57-.51-1.13-.8-1.69-.28-.55-.58-1.1-.9-1.63-.32-.54-.66-1.06-1.01-1.58-.35-.51-.72-1.01-1.11-1.5-.38-.49-.78-.97-1.2-1.43-.42-.46-.84-.92-1.29-1.35-.45-.44-.9-.86-1.38-1.27-.47-.4-.95-.79-1.45-1.17-.5-.37-1.01-.73-1.53-1.08-.52-.34-1.06-.66-1.6-.97-.54-.31-1.09-.6-1.65-.87s-1.13-.53-1.7-.77c-.58-.23-1.17-.45-1.76-.64-.59-.2-1.18-.38-1.79-.54-.6-.16-1.21-.3-1.82-.42s-1.22-.22-1.84-.3c-.62-.08-1.24-.14-1.86-.18-.63-.04-1.25-.06-1.87-.06h-164.59l346.58-381.86-134.79,281.81-.21.45c-.24.55-.47,1.11-.67,1.67-.21.56-.4,1.13-.57,1.7-.17.57-.32,1.16-.46,1.74-.13.58-.25,1.17-.35,1.76-.09.59-.18,1.19-.23,1.78-.07.6-.11,1.19-.13,1.79-.03.6-.04,1.2-.02,1.79.01.61.04,1.2.09,1.8.05.59.12,1.19.2,1.78.09.6.19,1.18.32,1.77.12.59.26,1.17.42,1.75.16.57.34,1.15.53,1.71.2.57.4,1.13.63,1.68.23.55.48,1.1.74,1.64.27.53.55,1.06.84,1.58.3.52.61,1.04.94,1.54s.67.99,1.03,1.47c.35.48.73.95,1.11,1.41.39.45.79.89,1.21,1.33.41.43.84.85,1.28,1.25.44.41.89.8,1.36,1.18.46.38.94.74,1.42,1.09.49.34.99.67,1.5.99s1.03.62,1.55.91c.52.28,1.06.55,1.61.8.54.26,1.09.49,1.65.71.55.22,1.12.41,1.69.6.57.18,1.15.34,1.72.49.58.15,1.17.28,1.76.39.59.11,1.18.2,1.77.27.59.08,1.19.13,1.79.17.6.04,1.19.06,1.79.06h146.62c1.08-.01,2.13.15,3.16.46,1.03.31,2,.76,2.89,1.35.9.59,1.69,1.31,2.38,2.13.69.83,1.24,1.74,1.66,2.73s.69,2.02.8,3.09c.12,1.07.08,2.13-.12,3.19Z"/>
  <path class="st0" d="M1198.19,972.1c-.2,1.05-.55,2.06-1.04,3.02-.49.95-1.12,1.82-1.87,2.59l-373.16,385.31,170.5-301.91.14-.24c.3-.55.57-1.11.83-1.68.26-.56.51-1.13.73-1.72.22-.58.43-1.17.61-1.76.19-.6.35-1.2.5-1.81.14-.6.27-1.21.38-1.83.11-.61.19-1.23.26-1.85.06-.61.11-1.24.14-1.86.03-.62.03-1.24.02-1.87-.01-.62-.05-1.25-.1-1.86-.05-.63-.12-1.25-.22-1.86-.09-.62-.21-1.23-.34-1.84s-.29-1.21-.46-1.81c-.17-.6-.36-1.19-.57-1.78-.21-.59-.44-1.16-.69-1.74-.25-.57-.51-1.13-.8-1.69-.28-.55-.58-1.1-.9-1.63-.32-.54-.66-1.06-1.01-1.58-.35-.51-.72-1.01-1.11-1.5-.38-.49-.78-.97-1.2-1.43-.42-.46-.84-.92-1.29-1.35-.45-.44-.9-.86-1.38-1.27-.47-.4-.95-.79-1.45-1.17-.5-.37-1.01-.73-1.53-1.08-.52-.34-1.06-.66-1.6-.97-.54-.31-1.09-.6-1.65-.87s-1.13-.53-1.7-.77c-.58-.23-1.17-.45-1.76-.64-.59-.2-1.18-.38-1.79-.54-.6-.16-1.21-.3-1.82-.42s-1.22-.22-1.84-.3c-.62-.08-1.24-.14-1.86-.18-.63-.04-1.25-.06-1.87-.06h-164.59l346.58-381.86-134.79,281.81-.21.45c-.24.55-.47,1.11-.67,1.67-.21.56-.4,1.13-.57,1.7-.17.57-.32,1.16-.46,1.74-.13.58-.25,1.17-.35,1.76-.09.59-.18,1.19-.23,1.78-.07.6-.11,1.19-.13,1.79-.03.6-.04,1.2-.02,1.79.01.61.04,1.2.09,1.8.05.59.12,1.19.2,1.78.09.6.19,1.18.32,1.77.12.59.26,1.17.42,1.75.16.57.34,1.15.53,1.71.2.57.4,1.13.63,1.68.23.55.48,1.1.74,1.64.27.53.55,1.06.84,1.58.3.52.61,1.04.94,1.54s.67.99,1.03,1.47c.35.48.73.95,1.11,1.41.39.45.79.89,1.21,1.33.41.43.84.85,1.28,1.25.44.41.89.8,1.36,1.18.46.38.94.74,1.42,1.09.49.34.99.67,1.5.99s1.03.62,1.55.91c.52.28,1.06.55,1.61.8.54.26,1.09.49,1.65.71.55.22,1.12.41,1.69.6.57.18,1.15.34,1.72.49.58.15,1.17.28,1.76.39.59.11,1.18.2,1.77.27.59.08,1.19.13,1.79.17.6.04,1.19.06,1.79.06h146.62c1.08-.01,2.13.15,3.16.46,1.03.31,2,.76,2.89,1.35.9.59,1.69,1.31,2.38,2.13.69.83,1.24,1.74,1.66,2.73s.69,2.02.8,3.09c.12,1.07.08,2.13-.12,3.19Z"/>
</svg>